<?xml version="1.0" standalone="no"?>
<!DOCTYPE svg PUBLIC "-//W3C//DTD SVG 20010904//EN"
 "http://www.w3.org/TR/2001/REC-SVG-20010904/DTD/svg10.dtd">
<svg version="1.0" xmlns="http://www.w3.org/2000/svg"
 width="500.000000pt" height="500.000000pt" viewBox="0 0 500.000000 500.000000"
 preserveAspectRatio="xMidYMid meet">

<g transform="translate(0.000000,500.000000) scale(0.100000,-0.100000)"
fill="#000000" stroke="none">
<path d="M1363 4409 c-266 -44 -529 -248 -645 -499 -77 -166 -72 -103 -78
-1010 -3 -448 -4 -817 -2 -819 1 -3 23 5 49 18 32 15 43 18 34 7 -7 -8 -28
-20 -47 -26 l-34 -12 0 -351 c0 -202 -4 -346 -9 -338 -7 11 -9 11 -14 0 -3 -8
-6 -3 -6 10 -1 13 -4 21 -8 17 -8 -8 -4 -96 5 -111 4 -5 8 -21 10 -35 2 -14
10 -35 18 -47 8 -13 12 -23 9 -23 -2 0 7 -26 21 -57 120 -273 392 -482 694
-534 88 -15 2054 -23 2202 -9 201 19 372 87 525 210 149 120 271 322 318 528
15 63 16 157 13 824 -3 680 -5 756 -20 788 -17 34 -17 31 -20 -155 -1 -104 -5
58 -9 360 -3 303 -10 563 -14 579 -6 21 -5 27 4 22 6 -4 9 -12 6 -17 -4 -5 -1
-9 6 -9 7 0 9 10 7 25 -3 13 -2 23 1 22 13 -4 10 20 -8 73 -7 19 -13 41 -14
48 0 6 -2 10 -5 7 -8 -7 -38 38 -46 67 -4 18 -11 25 -20 22 -8 -3 -12 -12 -9
-21 5 -12 8 -12 15 -1 7 9 8 6 5 -10 -4 -16 1 -27 14 -35 10 -6 19 -15 19 -20
0 -4 -6 -5 -12 -1 -9 5 -8 2 1 -10 10 -12 11 -20 4 -27 -8 -8 -17 7 -32 48
-30 79 -74 143 -165 240 -68 72 -75 83 -59 92 10 6 13 11 5 11 -7 0 -17 10
-22 23 -7 19 -9 19 -9 3 -1 -15 -4 -16 -15 -7 -9 8 -16 8 -20 2 -4 -6 -19 -4
-39 8 -18 10 -52 29 -77 43 -25 13 -72 35 -105 47 -136 51 -128 51 -1288 50
-595 -1 -1106 -5 -1134 -10z m2667 -160 c0 -6 -4 -7 -10 -4 -5 3 -10 11 -10
16 0 6 5 7 10 4 6 -3 10 -11 10 -16z m25 1 c3 -5 1 -10 -4 -10 -6 0 -11 5 -11
10 0 6 2 10 4 10 3 0 8 -4 11 -10z m-2395 -68 c0 -32 -4 -93 -9 -137 -5 -44
-15 -152 -22 -240 l-12 -160 -35 -32 c-19 -18 -39 -33 -44 -33 -6 0 0 8 13 19
22 17 22 19 6 35 -16 16 -17 16 -17 -7 0 -31 -26 -43 -39 -19 -12 23 -2 39 40
60 28 14 34 22 32 47 -2 17 -4 54 -5 83 -1 30 -4 49 -6 43 -7 -20 -32 -12 -32
10 0 18 4 20 25 15 22 -6 25 -3 25 21 0 16 5 45 11 66 11 40 5 62 -10 38 -6
-10 -10 -10 -16 -2 -4 7 -2 18 5 26 8 10 8 15 0 20 -17 10 -18 7 -44 -96 -34
-134 -59 -345 -44 -373 10 -19 10 -20 -6 -7 -20 17 -17 78 11 251 14 91 86
339 101 350 4 3 16 22 27 43 29 55 45 48 45 -21z m1734 10 c48 -77 64 -195 30
-215 -9 -5 -14 -26 -14 -57 0 -47 15 -74 29 -52 4 6 12 7 20 3 17 -11 4 -34
-14 -27 -7 2 -15 -1 -18 -8 -7 -16 17 -46 36 -46 18 0 33 -42 22 -59 -10 -17
-33 -13 -44 6 -8 15 -10 14 -17 -11 -6 -23 -3 -33 15 -47 13 -10 19 -23 15
-33 -7 -18 -14 -19 -46 -7 -23 8 -24 16 -36 162 -7 85 -17 211 -24 280 -15
168 -5 191 46 111z m-675 23 c238 -46 426 -180 554 -399 20 -33 18 -31 -65 77
-29 38 -68 80 -85 93 -33 25 -33 25 -33 3 0 -15 -4 -19 -15 -15 -8 3 -21 8
-28 11 -7 3 23 -32 68 -77 78 -80 171 -224 162 -252 -2 -6 -20 21 -40 59 -46
87 -105 156 -203 235 -88 70 -128 92 -244 133 -76 26 -101 30 -240 34 -86 3
-185 1 -221 -5 -88 -14 -231 -69 -304 -117 -94 -62 -206 -179 -258 -270 -58
-99 -62 -78 -5 25 28 51 68 101 126 158 67 65 79 82 59 76 -21 -5 -27 -2 -27
10 0 26 -11 19 -83 -51 -38 -38 -64 -57 -57 -44 22 44 144 155 215 198 86 51
201 97 291 117 94 20 329 20 433 1z m-891 -57 c-6 -18 -28 -21 -28 -4 0 9 7
16 16 16 9 0 14 -5 12 -12z m-618 -104 c11 -12 11 -18 -2 -30 -13 -13 -19 -14
-36 -3 -20 12 -20 15 -5 31 20 22 27 22 43 2z m2620 -13 c0 -4 -8 -15 -18 -25
-18 -15 -20 -15 -37 4 -18 20 -18 21 1 34 19 14 54 6 54 -13z m-339 -121 c21
-80 44 -238 36 -246 -3 -3 -8 21 -12 53 -6 51 -33 183 -51 253 -4 14 -4 22 0
18 5 -4 16 -39 27 -78z m-1487 -2 c-64 -60 -94 -106 -94 -145 0 -13 3 -14 11
-6 9 9 16 6 29 -9 16 -21 16 -23 -3 -57 -11 -20 -22 -38 -24 -40 -2 -3 -10 4
-18 15 -14 18 -16 18 -46 -16 -16 -19 -26 -26 -21 -15 31 66 41 94 47 128 8
50 -3 43 -62 -37 -53 -70 -51 -51 3 30 51 77 198 207 242 214 1 0 -27 -28 -64
-62z m774 5 c13 -8 22 -16 20 -19 -5 -4 -88 36 -88 43 0 7 43 -8 68 -24z m672
7 c0 -11 -7 -20 -15 -20 -8 0 -15 9 -15 20 0 11 7 20 15 20 8 0 15 -9 15 -20z
m-1880 -10 c0 -21 -15 -27 -25 -10 -7 12 2 30 16 30 5 0 9 -9 9 -20z m1520
-63 c22 -21 49 -53 61 -70 18 -28 16 -27 -17 8 -21 22 -56 57 -79 78 -22 21
-32 34 -23 30 10 -5 36 -26 58 -46z m-1320 9 c0 -2 -8 -10 -17 -17 -16 -13
-17 -12 -4 4 13 16 21 21 21 13z m444 -42 c8 -20 3 -28 -37 -56 -21 -15 -27
-17 -18 -5 7 9 10 17 7 17 -4 0 1 14 11 30 20 34 28 37 37 14z m1881 6 c3 -6
-1 -13 -10 -16 -19 -8 -30 0 -20 15 8 14 22 14 30 1z m-3116 -14 c8 -10 8 -16
-2 -24 -17 -14 -42 2 -34 22 8 20 21 20 36 2z m391 -16 c-14 -11 -45 -32 -70
-47 -25 -14 -85 -57 -135 -94 -165 -124 -184 -162 -95 -198 l25 -10 -23 0
c-32 -1 -82 -50 -82 -81 -1 -24 -1 -23 -14 6 -8 18 -19 34 -24 38 -25 15 -66
-84 -81 -199 l-10 -70 3 75 c3 43 13 101 26 135 36 102 36 95 -1 96 l-34 1 35
9 c33 9 80 62 80 90 0 6 6 9 14 6 7 -3 29 10 47 30 56 58 175 143 265 189 93
48 113 54 74 24z m681 -26 c-46 -52 -47 -56 -26 -78 14 -14 12 -19 -16 -48
-22 -23 -29 -27 -24 -13 4 11 8 28 10 38 2 9 7 23 10 30 7 12 -13 -11 -41 -48
-8 -11 -5 0 7 25 17 37 103 140 117 140 2 0 -15 -21 -37 -46z m1659 10 c0 -8
-5 -12 -10 -9 -6 4 -8 11 -5 16 9 14 15 11 15 -7z m-2150 -36 c0 -22 -27 -35
-42 -20 -8 8 -8 19 1 38 9 21 14 24 26 14 8 -7 15 -21 15 -32z m1518 -24 c-4
-3 -12 5 -18 18 -12 22 -12 22 6 6 10 -10 15 -20 12 -24z m912 -29 c0 -67 62
-135 123 -135 43 0 40 -17 -4 -23 -69 -9 -119 -74 -119 -153 0 -50 -8 -40 -20
26 -15 80 -73 130 -150 130 -18 0 -29 4 -25 10 3 6 20 10 37 10 72 0 138 61
138 128 0 17 5 32 10 32 6 0 10 -11 10 -25z m-1723 -41 c-20 -25 -41 -61 -47
-78 -10 -32 -35 -44 -44 -21 -8 22 9 71 36 105 27 34 28 34 28 10 1 -25 1 -25
27 8 14 18 28 30 31 27 3 -2 -11 -25 -31 -51z m349 -63 c-14 -64 -52 -149 -62
-138 -2 2 4 24 15 48 10 24 27 79 37 122 23 96 31 69 10 -32z m399 71 c-8 -8
-25 10 -19 20 4 6 9 5 15 -3 4 -7 6 -15 4 -17z m-936 -35 c-16 -31 -16 -31
-34 -14 -17 17 -20 32 -5 22 6 -3 10 -1 10 5 0 6 5 8 10 5 6 -3 10 -1 10 5 0
6 5 8 10 5 7 -4 6 -14 -1 -28z m1460 -27 c0 -29 -25 -68 -36 -55 -5 4 -2 10 5
12 7 3 12 25 13 56 0 38 3 47 9 32 5 -11 9 -31 9 -45z m-1778 23 c-12 -20 -14
-14 -5 12 4 9 9 14 11 11 3 -2 0 -13 -6 -23z m368 -5 c-7 -12 -30 -41 -52 -63
l-41 -40 34 50 c40 61 62 87 67 81 3 -2 -1 -15 -8 -28z m816 22 c14 -22 23
-70 14 -70 -13 0 -49 61 -43 72 7 11 22 10 29 -2z m555 -5 c13 -16 6 -35 -15
-35 -18 0 -28 17 -21 35 7 19 20 19 36 0z m-766 -114 c-7 -43 -8 -44 -13 -16
-4 17 -10 29 -14 28 -4 -2 -14 -3 -23 -3 -8 0 -12 -4 -9 -10 3 -5 1 -10 -4
-10 -16 0 -13 20 3 26 8 3 12 12 9 20 -3 8 0 14 6 14 6 0 11 -5 11 -11 0 -21
19 2 26 34 l8 32 4 -29 c2 -17 0 -50 -4 -75z m153 67 c-3 -8 -6 -5 -6 6 -1 11
2 17 5 13 3 -3 4 -12 1 -19z m-207 -3 c0 -8 -4 -15 -10 -15 -5 0 -7 -6 -4 -13
3 -8 -2 -19 -10 -26 -13 -11 -14 -9 -9 16 3 15 6 34 6 41 1 17 27 15 27 -3z
m143 0 c4 -8 3 -16 -1 -19 -4 -3 -9 4 -9 15 -2 23 3 25 10 4z m-1258 -54 c-7
-24 -35 -29 -35 -6 0 13 31 38 38 30 2 -2 1 -13 -3 -24z m1902 4 c8 -22 -6
-33 -17 -15 -13 20 -12 30 0 30 6 0 13 -7 17 -15z m-603 -227 l27 -46 -58 -7
c-72 -8 -166 -36 -170 -52 -3 -7 18 -4 59 9 35 11 89 21 120 23 l56 4 47 -55
c26 -30 49 -53 52 -50 2 2 -12 28 -32 58 l-37 53 36 -40 c51 -56 97 -125 91
-135 -3 -5 0 -12 6 -16 8 -5 9 -3 4 7 -6 11 -5 12 5 2 20 -19 4 -28 -26 -14
-15 7 -24 17 -21 25 4 10 -8 15 -43 20 -38 5 -48 10 -44 21 7 16 -11 21 -20 6
-3 -5 -31 -11 -61 -13 -45 -4 -67 -13 -113 -46 -31 -22 -56 -45 -54 -52 1 -6
-3 -21 -9 -33 -12 -22 -12 -22 10 -3 21 19 21 19 21 -13 0 -36 20 -86 48 -117
27 -32 152 -37 188 -8 16 13 16 15 2 10 -56 -18 -54 -18 -35 -6 43 27 70 136
46 181 -9 19 -9 19 13 7 41 -23 41 -25 23 -112 -2 -10 -10 -25 -17 -35 -8 -10
-4 -8 11 4 13 11 35 38 50 60 59 92 21 -60 -58 -226 -31 -66 -46 -79 -106 -92
-18 -4 -18 -5 2 -6 38 -2 34 -18 -14 -61 -98 -87 -306 -203 -363 -203 -64 0
-304 139 -385 223 -22 23 -32 38 -22 35 9 -4 17 -3 17 3 0 5 -11 13 -25 16
-33 8 -45 28 -105 175 -34 82 -48 130 -44 144 7 21 7 21 25 -2 11 -13 19 -29
19 -36 0 -7 6 -15 14 -18 11 -4 12 2 3 35 -9 35 -7 42 12 61 l21 21 0 -42 c0
-49 11 -75 49 -115 l26 -28 -29 11 c-16 6 -31 8 -34 5 -3 -3 0 -5 7 -5 7 0 9
-4 6 -10 -9 -14 151 -13 177 1 25 14 57 84 58 128 0 33 1 34 20 16 19 -17 19
-17 7 15 -17 46 -100 106 -167 122 -48 11 -51 13 -24 16 17 2 54 -6 83 -17 55
-21 67 -20 25 2 -20 10 -23 16 -12 24 22 17 78 33 95 26 10 -4 14 -2 10 4 -4
6 17 23 50 39 31 16 81 52 112 79 30 28 49 41 43 29 -12 -22 -123 -149 -151
-173 -14 -12 -12 -13 19 -7 46 9 112 41 166 83 45 33 45 33 28 6 -10 -17 3 -8
33 23 54 57 127 187 139 248 l7 39 32 -89 c18 -49 44 -110 59 -136z m-1584
202 c0 -5 -5 -10 -11 -10 -5 0 -7 5 -4 10 3 6 8 10 11 10 2 0 4 -4 4 -10z
m398 -27 c-1 -37 -1 -37 -5 -6 -4 27 -9 32 -36 36 -31 4 -31 4 6 5 37 2 37 2
35 -35z m1702 30 c-65 -21 -70 -22 -70 -7 0 10 12 14 43 13 23 0 35 -3 27 -6z
m-1837 -28 c-3 -9 -8 -14 -10 -11 -3 3 -2 9 2 15 9 16 15 13 8 -4z m-85 -41
c-26 -25 -60 -71 -75 -102 -26 -53 -28 -66 -28 -177 0 -107 3 -125 24 -169 36
-71 137 -169 189 -182 12 -4 22 -10 22 -15 0 -10 -70 16 -80 29 -3 4 -18 14
-34 22 -42 22 -103 103 -122 163 -56 178 -9 377 105 454 51 35 51 28 -1 -23z
m893 18 c-5 -10 -18 -25 -27 -33 -11 -9 -9 -2 6 19 26 35 36 42 21 14z m976
-4 c-3 -8 -6 -5 -6 6 -1 11 2 17 5 13 3 -3 4 -12 1 -19z m238 -10 c40 -34 75
-98 95 -170 18 -68 9 -208 -20 -281 -32 -85 -132 -177 -208 -192 -22 -5 -21
-3 8 10 41 19 50 31 50 67 0 20 -6 27 -22 30 l-23 3 2 238 c1 131 5 242 8 247
3 6 17 10 29 10 21 0 24 -6 29 -67 10 -99 8 -191 -4 -341 -7 -73 -9 -136 -5
-139 11 -12 74 58 108 121 32 60 33 64 33 181 -1 141 -15 184 -91 265 -52 56
-45 67 11 18z m-2035 -58 c22 -5 24 -10 21 -63 -1 -31 1 -57 6 -57 10 0 27 46
38 96 5 26 10 30 30 27 32 -7 35 -24 35 -203 0 -167 -8 -260 -21 -260 -5 0 -9
7 -9 15 0 8 -5 14 -12 13 -13 -3 -26 62 -27 140 -1 29 -8 50 -22 65 l-21 22 6
-137 c6 -123 5 -138 -9 -138 -47 0 -53 14 -62 142 -8 130 -8 158 3 303 4 56 9
81 13 65 4 -15 16 -27 31 -30z m137 -2 c-2 -13 -4 -5 -4 17 -1 22 1 32 4 23 2
-10 2 -28 0 -40z m1750 -243 c-4 -93 -22 -220 -26 -176 0 7 -7 11 -15 8 -32
-12 -36 18 -34 209 l3 189 30 5 30 5 8 -65 c4 -36 6 -114 4 -175z m-1968 163
c12 -31 2 -50 -23 -46 -24 4 -33 33 -16 53 17 21 29 19 39 -7z m2141 1 c15
-26 6 -49 -19 -49 -20 0 -31 18 -31 51 0 26 36 25 50 -2z m255 -9 c3 -5 -1
-10 -9 -10 -9 0 -16 5 -16 10 0 6 4 10 9 10 6 0 13 -4 16 -10z m308 -17 c9 -9
-13 -34 -24 -27 -14 8 -11 34 4 34 8 0 17 -3 20 -7z m-1743 -28 c-12 -14 -94
-55 -109 -55 -5 1 106 65 118 69 2 0 -2 -6 -9 -14z m885 -205 c5 -71 3 -142
-4 -186 -12 -80 -50 -209 -58 -200 -3 3 0 20 7 38 6 18 14 44 16 58 39 210 38
185 19 430 -4 51 -4 52 5 15 4 -22 12 -92 15 -155z m-1853 154 c10 -21 9 -31
-3 -52 -19 -35 -42 -39 -61 -10 -22 35 -6 88 28 88 17 0 28 -8 36 -26z m2179
-1 c11 -30 4 -74 -14 -85 -22 -14 -35 -8 -54 25 -18 29 -18 34 -4 59 21 37 58
38 72 1z m-451 -36 c0 -54 -17 -65 -22 -16 -3 24 -3 47 -1 52 9 16 23 -6 23
-36z m-930 28 c0 -8 -61 -37 -67 -32 -3 3 8 12 24 21 29 16 43 19 43 11z
m-525 -177 c0 -165 1 -178 33 -286 17 -62 40 -125 50 -139 9 -15 12 -24 6 -20
-18 11 -63 112 -86 195 -16 57 -22 107 -22 192 -1 94 9 230 17 230 1 0 2 -78
2 -172z m-593 90 c-17 -17 -47 9 -30 29 10 12 13 12 27 -1 11 -12 12 -19 3
-28z m-245 0 c-3 -7 -5 -2 -5 12 0 14 2 19 5 13 2 -7 2 -19 0 -25z m3121 -28
c34 -16 62 -33 62 -39 0 -6 -37 8 -82 29 -45 22 -88 40 -94 40 -7 0 -15 4 -19
9 -8 14 60 -7 133 -39z m-393 0 c10 -16 -4 -48 -24 -55 -11 -3 -22 -16 -26
-28 -4 -14 -8 -17 -12 -9 -3 7 0 19 7 26 7 9 7 16 1 20 -11 7 -3 37 13 48 16
11 34 10 41 -2z m-2157 -24 c2 -10 -2 -22 -9 -26 -20 -13 -39 0 -39 27 0 20 4
24 22 21 13 -2 24 -11 26 -22z m-408 -183 c36 -30 79 -65 95 -80 17 -14 47
-37 68 -51 58 -39 44 -37 -35 5 -91 48 -201 155 -246 239 -45 87 -40 91 11 9
27 -44 65 -88 107 -122z m1094 161 c36 -14 3 -61 -34 -49 -22 7 -26 25 -8 43
14 14 20 14 42 6z m684 -26 c-3 -25 -34 -36 -51 -19 -14 14 9 41 35 41 14 0
19 -6 16 -22z m1292 -4 c0 -2 -9 0 -20 6 -11 6 -20 13 -20 16 0 2 9 0 20 -6
11 -6 20 -13 20 -16z m-2443 -26 c-3 -8 -6 -5 -6 6 -1 11 2 17 5 13 3 -3 4
-12 1 -19z m-160 -90 c-3 -8 -6 -5 -6 6 -1 11 2 17 5 13 3 -3 4 -12 1 -19z
m635 4 c17 -14 28 -13 60 10 15 10 21 10 35 -4 16 -17 16 -19 -8 -44 -21 -22
-30 -25 -69 -21 -44 5 -80 33 -80 62 0 18 40 16 62 -3z m701 -9 c10 -3 26 2
36 11 20 18 31 12 31 -15 0 -29 -45 -52 -86 -46 -45 8 -64 23 -64 53 0 21 2
22 33 12 17 -5 40 -12 50 -15z m1306 -109 c-47 -93 -243 -267 -387 -344 -71
-38 -72 -28 16 -146 91 -122 155 -179 393 -350 20 -14 67 -58 105 -97 38 -39
61 -65 52 -58 -10 8 -18 10 -18 5 -1 -5 -8 0 -18 11 -27 32 -189 166 -277 230
-93 68 -231 195 -260 239 -11 17 -31 43 -45 57 -14 14 -30 33 -35 43 -10 17
-27 10 -210 -78 -110 -53 -189 -87 -175 -76 14 11 29 20 33 20 5 0 50 24 100
54 51 29 121 68 157 86 36 18 67 34 69 36 1 1 -16 37 -39 79 -23 42 -39 82
-37 89 3 8 0 34 -7 58 -7 23 -16 63 -19 88 -6 37 0 26 32 -55 68 -172 76 -191
91 -215 16 -22 16 -22 50 -5 78 40 295 191 339 236 25 26 60 70 76 97 37 62
45 60 14 -4z m-2279 -7 c0 -5 -4 -5 -10 -2 -5 3 -10 -2 -10 -11 0 -14 -3 -15
-12 -6 -10 10 -10 15 1 21 10 7 11 13 1 32 -11 24 -11 24 9 -1 11 -14 21 -29
21 -33z m1501 22 c-13 -10 -35 -19 -50 -18 -22 1 -21 2 9 9 19 5 39 15 45 24
5 8 12 13 15 10 3 -3 -6 -14 -19 -25z m459 -44 l-23 -24 -27 22 -28 22 25 26
24 27 26 -24 26 -24 -23 -25z m-2190 51 c6 -8 21 -17 33 -19 19 -4 19 -4 -4
-6 -15 0 -34 8 -44 19 -10 11 -13 20 -8 20 6 0 16 -6 23 -14z m1550 -3 c0 -2
-5 -14 -12 -26 -13 -25 -63 -75 -55 -55 34 86 40 96 53 91 8 -3 14 -7 14 -10z
m-141 -39 c-10 -23 -13 -25 -16 -11 -3 10 1 25 8 33 17 21 21 11 8 -22z
m-1599 -44 c-6 -23 -14 -49 -17 -58 -6 -15 -5 -15 10 -3 16 13 17 12 7 -14
-19 -50 -103 -168 -160 -225 -30 -30 -46 -48 -36 -40 18 14 19 14 8 -7 -7 -12
-27 -33 -44 -47 -18 -14 -28 -26 -21 -26 16 0 157 114 176 142 8 13 37 48 63
79 27 31 55 65 61 75 7 10 1 -12 -13 -51 -22 -63 -65 -138 -85 -151 -4 -2 4
16 18 41 14 25 24 48 22 50 -2 2 -24 -21 -49 -51 -49 -58 -280 -241 -280 -221
0 2 18 17 41 31 61 41 40 42 -33 1 -36 -19 -71 -35 -79 -35 -8 1 -1 8 14 16
16 9 27 18 24 21 -3 2 -41 -13 -85 -35 -83 -42 -222 -87 -222 -72 0 5 37 21
83 35 169 56 341 167 434 280 37 45 136 225 153 278 16 51 24 40 10 -13z m534
13 c10 -25 -4 -30 -20 -9 -8 11 -14 23 -14 28 0 13 28 -3 34 -19z m1584 -138
c-3 -3 -9 2 -12 12 -6 14 -5 15 5 6 7 -7 10 -15 7 -18z m-2498 -105 l-25 -25
-25 25 -25 25 25 25 25 25 25 -25 25 -25 -25 -25z m2010 -19 c-14 -27 -72 -74
-131 -106 -69 -37 -61 -24 14 23 34 22 75 54 91 71 34 36 41 39 26 12z m-1089
-7 c2 1 18 -13 34 -33 l30 -36 -42 33 c-24 19 -46 39 -50 45 -5 8 -2 8 9 0 8
-7 17 -11 19 -9z m-31 -29 c13 -14 21 -25 18 -25 -2 0 -15 11 -28 25 -13 14
-21 25 -18 25 2 0 15 -11 28 -25z m-1060 -59 c0 -8 -4 -17 -9 -21 -12 -7 -24
12 -16 25 9 15 25 12 25 -4z m1420 -21 c0 -8 7 -11 18 -8 10 2 26 -5 36 -16
14 -16 16 -21 5 -21 -24 0 -79 39 -79 55 0 9 5 13 10 10 6 -3 10 -12 10 -20z
m380 10 c0 -16 -32 -39 -70 -50 -24 -7 -23 -5 9 29 37 38 61 46 61 21z m-570
-41 c0 -2 -13 2 -30 11 -16 9 -30 18 -30 21 0 2 14 -2 30 -11 17 -9 30 -18 30
-21z m147 -31 c-3 -10 -5 -4 -5 12 0 17 2 24 5 18 2 -7 2 -21 0 -30z m453 -13
c0 -22 -2 -40 -4 -40 -2 0 -6 18 -8 40 -2 22 0 40 4 40 5 0 8 -18 8 -40z
m-345 0 c3 -6 -1 -7 -9 -4 -18 7 -21 14 -7 14 6 0 13 -4 16 -10z m1730 0 c4
-6 1 -17 -5 -26 -10 -11 -16 -12 -26 -3 -11 9 -11 15 -3 25 14 17 25 18 34 4z
m-2775 -54 c0 -2 -8 -10 -17 -17 -16 -13 -17 -12 -4 4 13 16 21 21 21 13z
m2555 -211 c23 -22 100 -96 173 -164 73 -68 131 -126 128 -129 -3 -3 -26 15
-51 39 -105 102 -122 117 -170 149 -75 50 -135 101 -130 109 2 4 -23 41 -56
82 -100 121 -107 140 -18 44 46 -49 102 -108 124 -130z m-1385 189 c0 -9 -5
-14 -12 -12 -18 6 -21 28 -4 28 9 0 16 -7 16 -16z m-1282 -26 c-2 -7 -13 -28
-26 -45 -33 -48 -9 -40 50 15 43 39 48 41 30 15 -42 -59 -176 -150 -296 -199
-76 -31 -79 -32 -51 -9 17 14 27 25 24 25 -3 0 -49 -21 -101 -48 -53 -26 -96
-43 -95 -37 3 15 28 31 134 87 103 53 199 114 271 173 46 37 64 44 60 23z
m1536 -14 c3 -8 2 -12 -4 -9 -6 3 -10 10 -10 16 0 14 7 11 14 -7z m-552 -36
c-7 -7 -12 -8 -12 -2 0 6 3 14 7 17 3 4 9 5 12 2 2 -3 -1 -11 -7 -17z m623
-13 c19 -15 19 -16 -5 -3 -14 7 -29 12 -34 13 -5 0 -11 6 -14 13 -5 16 18 6
53 -23z m141 -45 c8 0 10 -15 6 -45 -3 -35 -2 -45 9 -43 7 2 15 -5 17 -14 2
-11 -2 -18 -12 -18 -11 0 -16 -10 -17 -32 l-1 -33 -9 30 c-5 17 -7 55 -3 86 6
55 5 57 -23 68 -24 10 -25 11 -3 6 14 -2 30 -5 36 -5z m819 -10 c10 -11 16
-20 13 -20 -3 0 -13 9 -23 20 -10 11 -16 20 -13 20 3 0 13 -9 23 -20z m-758
-27 c-3 -10 -5 -4 -5 12 0 17 2 24 5 18 2 -7 2 -21 0 -30z m-1137 -35 c0 -121
-37 -230 -102 -299 -49 -53 -79 -69 -150 -78 l-63 -8 44 -8 c54 -10 35 -20
-50 -27 -65 -5 -61 -16 -48 132 23 269 88 347 292 349 l77 1 0 -62z m1415 38
c105 -49 138 -123 155 -346 5 -69 13 -146 16 -172 6 -46 5 -47 -33 -66 -41
-22 -137 -52 -162 -52 -21 0 -87 148 -96 215 -11 83 -19 96 -25 40 l-5 -50
-27 46 c-50 85 -81 195 -82 289 -1 124 -5 120 111 120 82 0 106 -4 148 -24z
m-783 -11 l28 -24 -30 -32 -29 -33 -36 37 c-21 21 -30 37 -22 37 8 0 22 9 32
20 23 25 24 25 57 -5z m1183 -45 c10 -11 16 -20 13 -20 -3 0 -13 9 -23 20 -10
11 -16 20 -13 20 3 0 13 -9 23 -20z m-1675 -107 c-10 -76 -35 -142 -75 -200
-29 -44 -33 -39 -6 9 23 40 55 133 72 211 17 77 22 66 9 -20z m-40 18 c0 -16
-7 -34 -15 -41 -13 -11 -15 -8 -15 13 0 32 9 57 21 57 5 0 9 -13 9 -29z
m-1254 -8 c-3 -17 -26 -32 -26 -16 0 8 20 33 26 33 1 0 1 -8 0 -17z m2241 -25
c-3 -8 -6 -5 -6 6 -1 11 2 17 5 13 3 -3 4 -12 1 -19z m37 -35 c10 1 21 -3 23
-10 3 -8 -3 -11 -15 -8 -18 3 -19 0 -12 -23 4 -15 15 -45 24 -66 18 -42 15
-61 -4 -26 -26 49 -64 177 -42 143 4 -6 16 -11 26 -10z m-609 -34 c22 -6 51
-19 65 -29 24 -17 26 -17 49 1 51 42 154 48 194 11 73 -66 60 -169 -29 -235
-27 -20 -70 -52 -96 -72 -25 -19 -50 -35 -54 -35 -4 0 -15 -7 -25 -16 -16 -14
-26 -9 -131 63 -91 63 -117 87 -136 123 -40 78 -13 162 59 187 43 15 55 15
104 2z m1399 -27 c8 -13 -11 -35 -23 -28 -16 10 -14 36 3 36 8 0 17 -4 20 -8z
m-734 -37 c0 -5 -5 -3 -10 5 -5 8 -10 20 -10 25 0 6 5 3 10 -5 5 -8 10 -19 10
-25z m-1985 -13 c0 -18 -20 -15 -23 4 -3 10 1 15 10 12 7 -3 13 -10 13 -16z
m3175 -84 c45 -72 21 -56 -29 20 -24 37 -34 58 -22 48 12 -11 35 -41 51 -68z
m-677 52 c33 -7 69 -22 85 -35 25 -22 26 -27 24 -100 -3 -68 -14 -125 -25
-125 -2 0 -2 35 1 78 l5 77 -52 -50 c-34 -34 -51 -58 -51 -75 0 -30 -47 -65
-116 -86 -60 -18 -74 -18 -74 1 0 10 -10 15 -27 16 -22 0 -17 4 24 19 95 34
177 84 243 148 l65 63 -28 25 c-15 13 -38 24 -50 24 -16 0 -18 -3 -9 -9 8 -4
12 -20 10 -33 l-3 -26 -45 22 c-26 12 -46 29 -49 41 -2 11 -11 25 -20 32 -18
15 -26 15 92 -7z m-2122 -1 c-28 -9 -32 -14 -28 -35 3 -19 -1 -26 -19 -30 -29
-8 -59 13 -44 31 16 19 -46 6 -64 -14 -15 -16 -13 -21 26 -63 66 -69 160 -128
278 -175 27 -10 29 -12 8 -8 -24 5 -28 2 -28 -16 0 -18 -4 -20 -27 -15 -87 21
-188 88 -166 110 4 4 -9 22 -28 39 -20 18 -41 42 -47 52 -21 38 -26 4 -15
-102 l11 -106 -29 -37 c-17 -20 -34 -50 -39 -66 l-8 -29 -1 30 c0 18 12 48 29
74 34 50 34 47 19 181 -16 137 -7 153 106 179 22 5 54 9 70 9 l30 0 -34 -9z
m1638 -19 c11 -24 11 -24 -3 -6 -9 11 -16 24 -16 30 0 12 5 7 19 -24z m-28
-93 c-13 -13 -26 -3 -16 12 3 6 11 8 17 5 6 -4 6 -10 -1 -17z m-1121 4 c0 -6
-4 -13 -10 -16 -5 -3 -10 1 -10 9 0 9 5 16 10 16 6 0 10 -4 10 -9z m64 -16
c-9 -14 -19 -23 -22 -20 -5 4 26 45 35 45 2 0 -4 -11 -13 -25z m1126 -26 c0
-5 -4 -9 -10 -9 -5 0 -10 7 -10 16 0 8 5 12 10 9 6 -3 10 -10 10 -16z m-1271
-45 c-63 -64 -63 -60 0 23 13 18 28 30 34 26 5 -3 -10 -25 -34 -49z m231 25
c0 -5 -7 -9 -15 -9 -15 0 -20 12 -9 23 8 8 24 -1 24 -14z m800 -5 c0 -14 -21
-19 -33 -7 -9 9 13 34 24 27 5 -3 9 -12 9 -20z m250 -39 c21 -23 21 -26 5 -17
-11 6 -36 27 -55 48 -34 36 -34 37 -5 17 17 -12 41 -33 55 -48z m-125 46 c-6
-4 -41 -20 -80 -35 -38 -15 -110 -51 -158 -78 -88 -51 -247 -181 -267 -218 -6
-11 -16 -20 -22 -20 -6 0 -45 33 -87 73 -42 39 -94 84 -116 98 -22 14 -69 44
-104 67 -35 23 -99 56 -143 74 -44 18 -75 34 -69 36 19 6 150 -55 252 -118 55
-35 137 -97 181 -139 l80 -76 80 77 c108 106 280 210 413 253 51 17 51 17 40
6z m-1354 -17 c31 3 64 8 73 12 16 6 17 4 7 -15 -7 -12 -17 -19 -22 -15 -6 3
-20 -3 -32 -14 -43 -38 -78 -42 -143 -16 -33 13 -60 24 -61 24 0 0 1 8 4 18 4
17 10 18 61 10 31 -6 82 -7 113 -4z m1319 -28 c0 -15 -24 -28 -34 -19 -7 7 13
33 25 33 5 0 9 -6 9 -14z m-1132 -36 c-7 -11 -17 -20 -22 -20 -5 0 -1 9 9 20
10 11 20 20 22 20 2 0 -2 -9 -9 -20z m1311 -41 c45 -52 91 -133 91 -162 0 -51
-64 -236 -77 -223 -3 3 5 33 17 68 27 77 30 200 7 245 -9 16 -37 53 -64 83
-26 30 -41 49 -31 44 9 -5 34 -30 57 -55z m-1138 5 c125 -55 247 -139 371
-258 l91 -87 91 89 c122 119 226 193 352 253 59 27 112 49 118 49 13 0 53 -38
45 -43 -2 -1 -38 -16 -79 -33 -44 -18 -74 -35 -72 -43 1 -7 -2 -10 -7 -6 -10
6 -71 -20 -71 -31 0 -2 9 0 20 6 14 7 20 7 20 0 0 -11 -3 -12 -41 -15 -36 -3
-207 -132 -294 -223 -52 -54 -75 -71 -88 -66 -9 3 -14 10 -11 15 3 5 -1 7 -8
4 -7 -3 -42 24 -78 61 -72 74 -139 127 -250 201 -70 46 -226 123 -250 123 -5
0 -10 3 -10 7 0 8 31 43 39 43 3 0 54 -21 112 -46z m94 16 c3 -5 -1 -10 -9
-10 -9 0 -16 5 -16 10 0 6 4 10 9 10 6 0 13 -4 16 -10z m725 -10 c0 -5 -2 -10
-4 -10 -3 0 -8 5 -11 10 -3 6 -1 10 4 10 6 0 11 -4 11 -10z m864 -89 c23 -24
26 -35 25 -97 -1 -58 -2 -64 -10 -39 -5 17 -7 42 -3 57 4 21 -2 35 -30 66 -37
40 -42 56 -29 89 6 14 8 11 14 -15 4 -19 19 -46 33 -61z m-3097 37 c-3 -8 -6
-5 -6 6 -1 11 2 17 5 13 3 -3 4 -12 1 -19z m27 -4 c3 -8 2 -12 -4 -9 -6 3 -10
10 -10 16 0 14 7 11 14 -7z m1111 -127 c0 -96 2 -107 33 -169 22 -45 53 -85
97 -126 45 -42 58 -59 43 -57 -33 7 -125 112 -158 180 -50 103 -62 192 -35
245 9 17 17 30 18 30 1 0 2 -46 2 -103z m-1093 58 c3 -14 0 -28 -6 -32 -6 -3
-8 -3 -4 2 4 4 3 15 -2 25 -5 10 -6 20 -3 24 9 9 10 8 15 -19z m595 -87 c-3
-8 -6 -5 -6 6 -1 11 2 17 5 13 3 -3 4 -12 1 -19z m-86 -67 c-18 -17 -30 -35
-27 -40 4 -5 2 -12 -4 -16 -5 -3 -10 -16 -10 -28 0 -14 -3 -18 -10 -11 -15 15
23 104 51 120 36 19 36 8 0 -25z m2633 27 c26 -11 67 -98 65 -136 0 -19 -4
-12 -30 58 -7 19 -27 47 -43 63 -33 29 -31 33 8 15z m-2384 -172 c0 -11 -19
-15 -25 -6 -3 5 1 10 9 10 9 0 16 -2 16 -4z"/>
<path d="M2395 4213 c-139 -19 -305 -81 -305 -113 0 -11 -12 -26 -28 -34 -16
-8 -35 -22 -43 -32 -13 -16 -12 -16 16 -2 118 61 263 102 401 113 161 14 379
-32 512 -107 28 -16 52 -25 52 -20 0 6 -7 12 -15 16 -11 4 -14 13 -9 30 5 23
-1 28 -98 75 -76 37 -126 54 -192 66 -82 14 -219 18 -291 8z"/>
<path d="M2833 3133 c9 -2 25 -2 35 0 9 3 1 5 -18 5 -19 0 -27 -2 -17 -5z"/>
<path d="M2788 3123 c7 -3 16 -2 19 1 4 3 -2 6 -13 5 -11 0 -14 -3 -6 -6z"/>
<path d="M2744 3104 c-18 -14 -18 -15 4 -4 12 6 22 13 22 15 0 8 -5 6 -26 -11z"/>
<path d="M2376 2588 c6 -9 84 -31 90 -26 2 2 -19 11 -46 19 -27 8 -47 12 -44
7z"/>
<path d="M2595 2585 c-16 -8 -23 -14 -14 -15 8 0 24 7 35 15 23 18 18 18 -21
0z"/>
<path d="M2538 2563 c7 -3 16 -2 19 1 4 3 -2 6 -13 5 -11 0 -14 -3 -6 -6z"/>
<path d="M1189 2139 c-23 -19 -23 -20 -2 -10 12 6 25 16 28 21 10 16 -1 12
-26 -11z"/>
<path d="M4149 4138 c7 -10 17 -16 21 -13 12 8 33 -23 24 -36 -4 -7 -3 -9 2
-6 6 3 15 -6 22 -21 7 -15 21 -38 32 -52 16 -21 21 -23 32 -11 11 12 10 13 -4
8 -9 -3 -19 0 -22 8 -3 9 0 12 10 8 7 -3 14 0 14 6 0 6 -5 10 -12 9 -7 -2 -12
4 -13 12 0 8 -8 14 -16 12 -12 -2 -16 5 -14 23 2 14 0 23 -4 21 -7 -5 -41 28
-38 36 1 2 -2 0 -7 -4 -5 -4 -17 -2 -25 5 -14 11 -14 10 -2 -5z"/>
<path d="M4381 3414 c0 -11 3 -14 6 -6 3 7 2 16 -1 19 -3 4 -6 -2 -5 -13z"/>
<path d="M4380 3077 c0 -26 4 -47 9 -47 5 0 12 -8 15 -17 3 -10 4 6 2 35 -4
71 -26 95 -26 29z"/>
</g>
</svg>
